<svg width="1366" height="459" viewBox="0 0 1366 459" fill="none" xmlns="http://www.w3.org/2000/svg">
<g clip-path="url(#clip0_54_79)">
<path d="M855.51 229.45C856.89 229.45 858.12 228.92 858.99 228C859.99 227.06 860.52 225.83 860.52 224.45V153.37C860.52 151.98 859.99 150.75 859.07 149.9C857.19 147.89 853.76 147.97 852.04 149.82C851.04 150.75 850.51 151.98 850.51 153.37V224.45C850.51 225.83 851.04 227.06 851.97 227.92C852.9 228.92 854.13 229.45 855.51 229.45Z" fill="#6ABCB7"/>
<path d="M908.04 229.48H946.46C947.83 229.48 949.04 228.98 949.97 228.05C950.94 227.08 951.46 225.84 951.46 224.48C951.46 223.16 950.94 221.94 949.97 220.97C949.03 220.03 947.82 219.53 946.45 219.53H912.99V153.35C912.99 151.98 912.49 150.77 911.56 149.84C909.59 147.87 906.4 147.91 904.47 149.84C903.53 150.78 903.03 151.99 903.03 153.35V224.48C903.03 225.82 903.52 227.04 904.5 228.08C905.48 229 906.7 229.48 908.04 229.48Z" fill="#6ABCB7"/>
<path d="M987.06 189.27V224.63C987.06 225.99 987.56 227.2 988.49 228.14C989.47 229.12 990.68 229.64 992.01 229.64C993.37 229.64 994.6 229.12 995.58 228.14C996.52 227.2 997.01 225.99 997.01 224.63V189.27L1023.38 156.26C1024.2 155.22 1024.56 154.01 1024.45 152.57C1024.28 151.25 1023.65 150.13 1022.56 149.26L1022.55 149.25C1021.51 148.43 1020.25 148.08 1018.93 148.23C1017.59 148.35 1016.42 148.99 1015.54 150.08L992 179.51L968.51 150.08C967.64 148.98 966.44 148.34 965.13 148.24C963.8 148.07 962.55 148.43 961.49 149.26C960.41 150.13 959.77 151.25 959.59 152.65C959.48 154 959.85 155.21 960.67 156.27L987.06 189.27Z" fill="#6ABCB7"/>
<path d="M681.22 158.29H697.24C705.62 158.29 712.89 161.29 718.85 167.22C724.81 173.18 727.83 180.45 727.83 188.83C727.83 197.32 724.89 204.39 718.85 210.43C712.89 216.36 705.6 219.37 697.16 219.37L686.18 219.53V204.97C686.18 198.6 676.61 198.6 676.61 204.97V223.31C676.25 224.83 676.57 226.5 677.47 227.71C678.38 228.93 679.78 229.61 681.4 229.61H690.59C691.04 229.61 691.49 229.56 691.49 229.51L697.24 229.44C708.38 229.44 718.03 225.43 725.93 217.53C733.83 209.63 737.84 199.98 737.84 188.84C737.84 177.7 733.83 168.05 725.93 160.15C718.03 152.25 708.38 148.25 697.24 148.25H680.8C677.62 148.25 675.9 150.84 675.9 153.28C675.91 155.7 677.63 158.29 681.22 158.29Z" fill="#6ABCB7"/>
<path d="M223.19 229.74H261.23C262.59 229.74 263.79 229.25 264.72 228.32C265.69 227.35 266.2 226.12 266.2 224.77C266.2 223.45 265.69 222.24 264.72 221.28C263.78 220.34 262.58 219.85 261.23 219.85H228.11V154.33C228.11 152.97 227.62 151.77 226.68 150.83C224.72 148.87 221.56 148.92 219.64 150.84C218.71 151.77 218.21 152.98 218.21 154.33V224.77C218.21 226.1 218.69 227.32 219.67 228.35C220.63 229.26 221.85 229.74 223.19 229.74Z" fill="#6ABCB7"/>
<path d="M154.91 229.74C162.63 229.74 169.32 226.97 174.79 221.49C180.26 216.02 183.04 209.33 183.04 201.61V154.28C183.04 152.92 182.55 151.72 181.58 150.75C179.64 148.92 176.54 148.92 174.68 150.79C173.75 151.73 173.26 152.93 173.26 154.28V201.61C173.26 206.73 171.5 210.96 167.86 214.56C164.23 218.19 159.99 219.96 154.91 219.96C149.8 219.96 145.56 218.19 141.96 214.56C138.33 210.96 136.57 206.73 136.57 201.62V154.29C136.57 152.93 136.07 151.73 135.14 150.8C133.25 148.9 130.05 148.96 128.21 150.8C127.28 151.73 126.78 152.94 126.78 154.29V201.62C126.78 209.34 129.56 216.02 135.03 221.5C140.5 226.97 147.19 229.74 154.91 229.74Z" fill="#6ABCB7"/>
<path d="M51.42 228.3C52.41 227.36 52.93 226.14 52.93 224.77V194.5L70.74 194.49V194.73L73.84 194.5C80.19 194.16 85.67 191.81 90.12 187.51C94.61 183.14 96.88 177.88 96.88 171.86C96.88 165.62 94.47 160.21 89.71 155.8C84.95 151.39 79.15 149.15 72.46 149.15H47.9C44.71 149.15 42.99 151.71 42.99 154.13C42.99 156.54 44.71 159.11 47.9 159.11H72.46C76.53 159.11 79.91 160.35 82.8 162.91C85.62 165.41 86.99 168.34 86.99 171.86C86.99 175.32 85.65 178.21 82.89 180.72C80.1 183.24 76.82 184.52 72.89 184.61H42.98V224.78C42.98 226.15 43.51 227.36 44.43 228.24C45.37 229.23 46.59 229.75 47.96 229.75C49.33 229.74 50.55 229.22 51.42 228.3Z" fill="#6ABCB7"/>
<path d="M317.23 193.81H324C331.25 193.81 337.15 199.71 337.15 206.96C337.15 214.22 331.25 220.11 324 220.11H299.32C296.23 220.11 294.57 222.56 294.57 224.86C294.57 227.16 296.24 229.61 299.32 229.61H324C336.5 229.61 346.66 219.44 346.66 206.95C346.66 194.46 336.5 184.3 324 184.3H317.91C317.73 184.3 317.57 184.31 317.73 184.33L317.22 184.3C309.97 184.3 304.07 178.4 304.07 171.15C304.07 163.9 309.97 158 317.22 158H341.9C344.99 158 346.65 155.55 346.65 153.25C346.65 150.94 344.98 148.49 341.9 148.49H317.22C304.72 148.49 294.56 158.66 294.56 171.15C294.56 183.64 304.73 193.81 317.23 193.81Z" fill="#6ABCB7"/>
<path d="M379.27 159.1H388.37C388.63 159.1 388.88 159.08 388.89 159.06L426.89 159.15C428.24 159.15 429.45 158.66 430.39 157.72C431.35 156.75 431.87 155.52 431.87 154.17C431.87 152.85 431.36 151.64 430.43 150.72C429.49 149.72 428.27 149.2 426.9 149.2L379.28 149.11C376.09 149.11 374.37 151.68 374.37 154.11C374.35 156.52 376.07 159.1 379.27 159.1Z" fill="#6ABCB7"/>
<path d="M374.88 210.55V224.88C374.88 227.46 377.06 229.64 379.63 229.64H427.55C430.64 229.64 432.3 227.19 432.3 224.89C432.3 222.58 430.63 220.13 427.55 220.13H384.38V210.3C384.39 203.97 374.88 203.71 374.88 210.55Z" fill="#6ABCB7"/>
<path d="M379.27 191.25H388.37C388.63 191.25 388.88 191.23 388.89 191.21L426.89 191.3C428.24 191.3 429.45 190.81 430.39 189.87C431.35 188.9 431.87 187.67 431.87 186.32C431.87 185 431.36 183.79 430.43 182.87C429.49 181.88 428.28 181.35 426.9 181.35L379.28 181.26C376.09 181.26 374.37 183.83 374.37 186.26C374.35 188.68 376.07 191.25 379.27 191.25Z" fill="#6ABCB7"/>
<path d="M1243.26 224.91C1227.71 224.91 1214.85 236.3 1212.49 251.19H1126.54L1106.42 218.24C1105.34 216.47 1103.42 215.39 1101.35 215.39C1099.28 215.39 1097.36 216.47 1096.28 218.23L1076.43 250.68H1037.97C1035.82 250.68 1033.84 251.84 1032.79 253.71L1015.27 284.91L999.55 253.94C998.54 251.95 996.49 250.69 994.25 250.69H910.2C907.16 250.69 904.61 252.99 904.29 256.01L888.3 408.11L795.74 151.88C795.72 151.82 795.68 151.76 795.65 151.7C795.57 151.51 795.48 151.32 795.38 151.14C795.29 150.97 795.21 150.81 795.11 150.65C795.01 150.49 794.89 150.35 794.77 150.2C794.65 150.04 794.52 149.89 794.38 149.75C794.25 149.62 794.12 149.51 793.98 149.39C793.82 149.26 793.67 149.12 793.5 149.01C793.36 148.91 793.21 148.83 793.05 148.75C792.86 148.64 792.66 148.54 792.46 148.45C792.4 148.42 792.35 148.39 792.29 148.36C792.19 148.32 792.08 148.31 791.98 148.27C791.77 148.2 791.57 148.14 791.36 148.1C791.18 148.06 791 148.04 790.81 148.02C790.61 148 790.42 147.98 790.22 147.98C790.02 147.98 789.83 147.99 789.63 148.01C789.45 148.03 789.26 148.05 789.08 148.08C788.87 148.12 788.67 148.17 788.47 148.23C788.36 148.26 788.25 148.27 788.14 148.31C788.07 148.33 788.02 148.37 787.96 148.4C787.77 148.48 787.58 148.57 787.4 148.67C787.23 148.76 787.07 148.84 786.91 148.95C786.75 149.05 786.61 149.17 786.46 149.29C786.31 149.41 786.15 149.53 786.01 149.67C785.88 149.8 785.76 149.94 785.64 150.08C785.51 150.23 785.38 150.38 785.27 150.55C785.17 150.7 785.08 150.86 784.99 151.02C784.89 151.21 784.79 151.39 784.7 151.59C784.67 151.65 784.63 151.71 784.61 151.77L746.48 250.7H653.78L632.02 214.51C630.92 212.68 628.96 211.58 626.78 211.63C624.64 211.68 622.7 212.87 621.69 214.76L602.35 250.71H583.7L561.95 18.11C561.67 15.06 559.11 12.73 556.04 12.72H556.03C552.97 12.72 550.41 15.04 550.11 18.09L527.55 250.69H494.7L475 217.57C473.93 215.77 471.99 214.67 469.89 214.67C469.87 214.67 469.86 214.67 469.84 214.67C467.73 214.69 465.78 215.83 464.73 217.66L445.83 250.69H25.3899C22.1099 250.69 19.45 253.35 19.45 256.63C19.45 259.91 22.1099 262.57 25.3899 262.57H449.29C451.42 262.57 453.39 261.43 454.45 259.58L470 232.4L486.22 259.67C487.29 261.47 489.23 262.57 491.33 262.57H532.96C536.02 262.57 538.58 260.25 538.88 257.2L555.94 81.33L572.39 257.18C572.68 260.24 575.24 262.57 578.31 262.57H605.92C608.11 262.57 610.12 261.37 611.15 259.44L627.22 229.56L645.33 259.69C646.4 261.48 648.34 262.57 650.42 262.57H750.56C753.02 262.57 755.22 261.06 756.11 258.76L789.98 170.88L885.93 436.48C886.79 438.86 889.04 440.4 891.52 440.4C891.76 440.4 892 440.39 892.24 440.36C894.99 440.03 897.14 437.84 897.43 435.08L915.57 262.56H990.6L1009.71 300.2C1010.7 302.16 1012.69 303.4 1014.88 303.45C1017.07 303.54 1019.11 302.33 1020.19 300.42L1041.46 262.56H1079.77C1081.84 262.56 1083.76 261.48 1084.84 259.72L1101.35 232.72L1118.15 260.22C1119.23 261.99 1121.15 263.07 1123.22 263.07H1212.89C1216.06 276.94 1228.45 287.29 1243.28 287.29C1260.51 287.29 1274.47 273.32 1274.47 256.1C1274.45 238.88 1260.48 224.91 1243.26 224.91Z" fill="url(#paint0_linear_54_79)"/>
<path d="M1284.19 171.68C1284.16 170.48 1285.11 169.47 1286.32 169.44C1287.53 169.41 1288.52 170.36 1288.56 171.57C1288.59 172.77 1287.64 173.77 1286.43 173.81C1285.22 173.85 1284.22 172.89 1284.19 171.68ZM1273.28 175.83C1273.24 174.31 1274.44 173.05 1275.96 173.01C1277.48 172.97 1278.74 174.17 1278.78 175.69C1278.82 177.21 1277.62 178.47 1276.1 178.51C1274.58 178.55 1273.32 177.35 1273.28 175.83ZM1264.94 179.23C1266.75 179.18 1268.25 180.61 1268.3 182.42C1268.35 184.23 1266.92 185.73 1265.11 185.78C1263.3 185.83 1261.8 184.4 1261.75 182.59C1261.7 180.78 1263.13 179.28 1264.94 179.23ZM1251.04 192.19C1250.99 190.06 1252.67 188.29 1254.8 188.24C1256.93 188.19 1258.7 189.87 1258.75 192C1258.8 194.13 1257.12 195.9 1254.99 195.95C1252.87 196 1251.1 194.32 1251.04 192.19ZM1241.71 204.68C1241.65 202.2 1243.61 200.13 1246.09 200.07C1248.57 200.01 1250.64 201.97 1250.7 204.45C1250.76 206.93 1248.8 209 1246.32 209.06C1243.83 209.13 1241.77 207.17 1241.71 204.68ZM1260.81 163.98C1260.47 162.83 1261.13 161.61 1262.28 161.27C1263.43 160.93 1264.65 161.59 1264.99 162.74C1265.33 163.89 1264.67 165.11 1263.52 165.45C1262.36 165.8 1261.15 165.14 1260.81 163.98ZM1251.34 170.81C1250.91 169.35 1251.74 167.82 1253.2 167.39C1254.66 166.96 1256.19 167.79 1256.62 169.25C1257.05 170.71 1256.22 172.24 1254.76 172.67C1253.3 173.1 1251.77 172.27 1251.34 170.81ZM1241.95 180.33C1241.44 178.59 1242.43 176.77 1244.16 176.26C1245.9 175.75 1247.72 176.74 1248.23 178.47C1248.74 180.21 1247.75 182.03 1246.02 182.54C1244.29 183.06 1242.46 182.07 1241.95 180.33ZM1234.09 192.37C1233.49 190.33 1234.65 188.18 1236.7 187.58C1238.74 186.98 1240.89 188.14 1241.49 190.19C1242.09 192.23 1240.93 194.38 1238.88 194.98C1236.84 195.58 1234.7 194.41 1234.09 192.37ZM1236.93 204.31C1237.63 206.69 1236.27 209.19 1233.89 209.9C1231.51 210.6 1229.01 209.24 1228.3 206.86C1227.6 204.48 1228.96 201.98 1231.34 201.27C1233.73 200.57 1236.23 201.93 1236.93 204.31ZM1236.22 162.6C1235.59 161.57 1235.92 160.23 1236.94 159.6C1237.97 158.97 1239.31 159.3 1239.94 160.32C1240.57 161.35 1240.24 162.69 1239.22 163.32C1238.19 163.95 1236.85 163.63 1236.22 162.6ZM1228.84 171.64C1228.05 170.34 1228.46 168.65 1229.75 167.85C1231.05 167.06 1232.74 167.46 1233.54 168.76C1234.33 170.06 1233.92 171.75 1232.63 172.55C1231.33 173.35 1229.64 172.94 1228.84 171.64ZM1222.24 183.27C1221.3 181.73 1221.78 179.71 1223.33 178.77C1224.87 177.83 1226.89 178.31 1227.84 179.86C1228.78 181.4 1228.3 183.42 1226.75 184.36C1225.2 185.3 1223.19 184.81 1222.24 183.27ZM1217.77 196.93C1216.66 195.11 1217.23 192.74 1219.05 191.63C1220.87 190.52 1223.24 191.09 1224.35 192.91C1225.46 194.73 1224.89 197.1 1223.07 198.21C1221.25 199.32 1218.88 198.75 1217.77 196.93ZM1217.42 206.24C1219.54 204.94 1222.31 205.61 1223.6 207.73C1224.9 209.85 1224.23 212.62 1222.11 213.91C1219.99 215.21 1217.22 214.54 1215.93 212.42C1214.63 210.3 1215.3 207.54 1217.42 206.24ZM1212.12 167.62C1211.25 166.79 1211.21 165.41 1212.04 164.54C1212.87 163.67 1214.25 163.63 1215.12 164.46C1215.99 165.29 1216.03 166.67 1215.2 167.54C1214.37 168.42 1212.99 168.45 1212.12 167.62ZM1207.33 178.27C1206.23 177.22 1206.18 175.48 1207.23 174.38C1208.28 173.28 1210.02 173.23 1211.12 174.28C1212.22 175.33 1212.27 177.07 1211.22 178.17C1210.18 179.27 1208.43 179.32 1207.33 178.27ZM1203.97 191.21C1202.66 189.96 1202.61 187.89 1203.85 186.58C1205.1 185.27 1207.17 185.22 1208.48 186.46C1209.79 187.71 1209.84 189.78 1208.6 191.09C1207.35 192.4 1205.28 192.45 1203.97 191.21ZM1203.18 205.56C1201.64 204.09 1201.57 201.65 1203.04 200.11C1204.51 198.57 1206.95 198.5 1208.49 199.97C1210.03 201.44 1210.1 203.88 1208.63 205.42C1207.16 206.97 1204.72 207.03 1203.18 205.56ZM1211.77 220.84C1210.06 222.64 1207.21 222.71 1205.41 221C1203.61 219.29 1203.54 216.44 1205.25 214.64C1206.96 212.84 1209.81 212.77 1211.61 214.48C1213.41 216.19 1213.48 219.04 1211.77 220.84ZM1189.27 175.76C1189.85 174.7 1191.17 174.31 1192.23 174.89C1193.29 175.47 1193.68 176.79 1193.1 177.85C1192.52 178.91 1191.2 179.3 1190.14 178.72C1189.08 178.14 1188.69 176.82 1189.27 175.76ZM1187.17 186.5C1187.9 185.16 1189.57 184.67 1190.91 185.4C1192.25 186.13 1192.74 187.8 1192.01 189.14C1191.28 190.48 1189.61 190.97 1188.27 190.24C1186.93 189.51 1186.44 187.84 1187.17 186.5ZM1187.05 199.16C1187.91 197.57 1189.9 196.98 1191.49 197.85C1193.08 198.71 1193.67 200.7 1192.8 202.29C1191.94 203.88 1189.95 204.47 1188.36 203.6C1186.78 202.74 1186.19 200.75 1187.05 199.16ZM1195.01 210.9C1196.88 211.92 1197.57 214.26 1196.55 216.13C1195.53 218 1193.19 218.69 1191.32 217.67C1189.45 216.65 1188.76 214.31 1189.78 212.44C1190.8 210.58 1193.14 209.88 1195.01 210.9ZM1201.78 224.11C1203.96 225.3 1204.77 228.03 1203.58 230.21C1202.39 232.39 1199.66 233.2 1197.48 232.01C1195.3 230.82 1194.49 228.09 1195.68 225.91C1196.86 223.73 1199.59 222.92 1201.78 224.11ZM1170.17 192.49C1170.45 191.32 1171.63 190.6 1172.8 190.88C1173.97 191.16 1174.69 192.34 1174.41 193.51C1174.13 194.68 1172.95 195.4 1171.78 195.12C1170.61 194.84 1169.89 193.66 1170.17 192.49ZM1174.24 201.38C1175.72 201.74 1176.63 203.22 1176.27 204.7C1175.91 206.18 1174.43 207.09 1172.95 206.73C1171.47 206.37 1170.56 204.89 1170.92 203.41C1171.28 201.93 1172.77 201.02 1174.24 201.38ZM1178.04 213.25C1179.8 213.67 1180.88 215.44 1180.46 217.2C1180.04 218.96 1178.27 220.04 1176.51 219.62C1174.75 219.2 1173.67 217.43 1174.09 215.67C1174.51 213.91 1176.28 212.83 1178.04 213.25ZM1180.16 227.79C1180.66 225.72 1182.74 224.45 1184.81 224.94C1186.88 225.44 1188.15 227.52 1187.66 229.59C1187.16 231.66 1185.08 232.93 1183.01 232.44C1180.94 231.95 1179.66 229.86 1180.16 227.79ZM1192.66 244.7C1190.24 244.12 1188.76 241.69 1189.34 239.27C1189.92 236.86 1192.35 235.37 1194.77 235.95C1197.18 236.53 1198.67 238.96 1198.09 241.38C1197.51 243.8 1195.07 245.28 1192.66 244.7ZM1156.05 213.59C1156.02 212.39 1156.97 211.39 1158.18 211.35C1159.38 211.32 1160.39 212.27 1160.42 213.48C1160.45 214.68 1159.5 215.69 1158.29 215.72C1157.08 215.75 1156.08 214.79 1156.05 213.59ZM1159.61 223.95C1159.57 222.43 1160.77 221.17 1162.29 221.13C1163.81 221.09 1165.07 222.29 1165.11 223.81C1165.15 225.33 1163.95 226.59 1162.43 226.63C1160.91 226.67 1159.64 225.47 1159.61 223.95ZM1172.39 234.8C1172.44 236.61 1171.01 238.11 1169.2 238.16C1167.39 238.21 1165.89 236.78 1165.84 234.97C1165.79 233.16 1167.22 231.66 1169.03 231.61C1170.84 231.56 1172.34 232.99 1172.39 234.8ZM1178.79 248.87C1176.66 248.92 1174.89 247.24 1174.84 245.11C1174.79 242.98 1176.47 241.21 1178.6 241.16C1180.73 241.11 1182.5 242.79 1182.55 244.92C1182.6 247.04 1180.92 248.81 1178.79 248.87ZM1150.59 239.1C1149.43 239.44 1148.22 238.78 1147.88 237.63C1147.54 236.47 1148.2 235.26 1149.35 234.92C1150.51 234.58 1151.72 235.24 1152.06 236.39C1152.4 237.55 1151.74 238.76 1150.59 239.1ZM1153.99 246.71C1153.56 245.25 1154.39 243.72 1155.85 243.29C1157.31 242.86 1158.84 243.69 1159.27 245.15C1159.7 246.61 1158.87 248.14 1157.41 248.57C1155.95 249 1154.42 248.17 1153.99 246.71ZM1159.16 267.28C1159.95 268.58 1159.55 270.27 1158.25 271.07C1156.95 271.86 1155.26 271.45 1154.46 270.16C1153.67 268.86 1154.07 267.17 1155.37 266.37C1156.67 265.57 1158.37 265.98 1159.16 267.28ZM1170.96 273.16C1171.9 274.7 1171.42 276.72 1169.87 277.66C1168.33 278.6 1166.31 278.12 1165.37 276.57C1164.43 275.03 1164.91 273.01 1166.46 272.07C1168 271.13 1170.01 271.62 1170.96 273.16ZM1183.54 282.14C1181.72 283.25 1179.35 282.68 1178.24 280.86C1177.13 279.04 1177.7 276.67 1179.52 275.56C1181.34 274.45 1183.71 275.02 1184.82 276.84C1185.93 278.66 1185.35 281.03 1183.54 282.14ZM1199.03 283.98C1196.91 285.28 1194.14 284.61 1192.85 282.49C1191.55 280.37 1192.22 277.6 1194.34 276.31C1196.46 275.01 1199.23 275.68 1200.52 277.8C1201.81 279.91 1201.15 282.68 1199.03 283.98ZM1154.15 284.7C1155.02 285.53 1155.06 286.91 1154.23 287.78C1153.4 288.65 1152.02 288.69 1151.15 287.86C1150.28 287.03 1150.24 285.65 1151.07 284.78C1151.9 283.91 1153.28 283.87 1154.15 284.7ZM1164.78 288.68C1165.88 289.73 1165.93 291.47 1164.88 292.57C1163.83 293.67 1162.09 293.72 1160.99 292.67C1159.89 291.62 1159.84 289.88 1160.89 288.78C1161.93 287.68 1163.67 287.63 1164.78 288.68ZM1173.06 291.43C1174.31 290.12 1176.38 290.07 1177.69 291.31C1179 292.56 1179.05 294.63 1177.81 295.94C1176.56 297.25 1174.49 297.3 1173.18 296.06C1171.87 294.81 1171.82 292.74 1173.06 291.43ZM1192.03 291.28C1193.57 292.75 1193.64 295.19 1192.17 296.73C1190.7 298.27 1188.26 298.34 1186.72 296.87C1185.18 295.4 1185.11 292.96 1186.58 291.42C1188.05 289.87 1190.49 289.81 1192.03 291.28ZM1207.61 294.49C1205.9 296.29 1203.05 296.36 1201.25 294.65C1199.45 292.94 1199.38 290.09 1201.09 288.29C1202.8 286.49 1205.65 286.42 1207.45 288.13C1209.25 289.84 1209.32 292.69 1207.61 294.49ZM1165.32 309.77C1164.74 310.83 1163.42 311.22 1162.36 310.64C1161.3 310.06 1160.91 308.74 1161.49 307.68C1162.07 306.62 1163.39 306.23 1164.45 306.81C1165.51 307.39 1165.9 308.71 1165.32 309.77ZM1176.84 311.64C1176.11 312.98 1174.44 313.47 1173.1 312.74C1171.76 312.01 1171.27 310.34 1172 309C1172.73 307.66 1174.4 307.17 1175.74 307.9C1177.08 308.63 1177.57 310.3 1176.84 311.64ZM1185.77 312.85C1184.18 311.99 1183.59 310 1184.46 308.41C1185.32 306.82 1187.31 306.23 1188.9 307.1C1190.49 307.96 1191.08 309.95 1190.21 311.54C1189.35 313.13 1187.36 313.72 1185.77 312.85ZM1197.51 304.9C1198.53 303.03 1200.87 302.34 1202.74 303.36C1204.61 304.38 1205.3 306.72 1204.28 308.59C1203.26 310.46 1200.92 311.15 1199.05 310.13C1197.18 309.11 1196.49 306.77 1197.51 304.9ZM1210.71 298.13C1211.9 295.95 1214.63 295.14 1216.81 296.33C1218.99 297.52 1219.8 300.25 1218.61 302.43C1217.42 304.61 1214.69 305.42 1212.51 304.23C1210.33 303.05 1209.53 300.31 1210.71 298.13ZM1181.72 328.13C1181.44 329.3 1180.26 330.02 1179.09 329.74C1177.92 329.46 1177.2 328.28 1177.48 327.11C1177.76 325.94 1178.94 325.22 1180.11 325.5C1181.29 325.78 1182.01 326.96 1181.72 328.13ZM1193.34 326.95C1192.98 328.43 1191.5 329.34 1190.02 328.98C1188.54 328.62 1187.63 327.14 1187.99 325.66C1188.35 324.18 1189.83 323.27 1191.31 323.63C1192.78 323.99 1193.69 325.48 1193.34 326.95ZM1206.22 323.4C1205.8 325.16 1204.03 326.24 1202.27 325.82C1200.51 325.4 1199.43 323.63 1199.85 321.87C1200.27 320.11 1202.04 319.03 1203.8 319.45C1205.57 319.87 1206.65 321.64 1206.22 323.4ZM1219.05 316.9C1218.55 318.97 1216.47 320.24 1214.4 319.75C1212.33 319.25 1211.06 317.17 1211.55 315.1C1212.05 313.03 1214.13 311.76 1216.2 312.25C1218.28 312.75 1219.55 314.83 1219.05 316.9ZM1225.88 310.57C1223.47 309.99 1221.98 307.56 1222.56 305.14C1223.14 302.73 1225.57 301.24 1227.99 301.82C1230.4 302.4 1231.89 304.83 1231.31 307.25C1230.72 309.66 1228.29 311.15 1225.88 310.57ZM1202.32 341.62C1202.35 342.82 1201.4 343.82 1200.19 343.86C1198.99 343.89 1197.98 342.94 1197.95 341.74C1197.92 340.54 1198.87 339.53 1200.08 339.5C1201.29 339.46 1202.29 340.42 1202.32 341.62ZM1213.23 337.48C1213.27 339 1212.07 340.26 1210.55 340.3C1209.03 340.34 1207.77 339.14 1207.73 337.62C1207.69 336.1 1208.89 334.84 1210.41 334.8C1211.93 334.76 1213.2 335.96 1213.23 337.48ZM1221.57 334.07C1219.76 334.12 1218.26 332.69 1218.21 330.88C1218.16 329.07 1219.59 327.57 1221.4 327.52C1223.21 327.47 1224.71 328.9 1224.76 330.71C1224.81 332.52 1223.38 334.02 1221.57 334.07ZM1235.47 321.12C1235.52 323.25 1233.84 325.02 1231.71 325.07C1229.58 325.12 1227.81 323.44 1227.76 321.31C1227.71 319.18 1229.39 317.41 1231.52 317.36C1233.65 317.3 1235.42 318.99 1235.47 321.12ZM1244.81 308.62C1244.87 311.1 1242.91 313.17 1240.43 313.23C1237.95 313.29 1235.88 311.33 1235.82 308.85C1235.76 306.37 1237.72 304.3 1240.2 304.24C1242.68 304.17 1244.74 306.14 1244.81 308.62ZM1225.71 349.32C1226.05 350.47 1225.39 351.69 1224.24 352.03C1223.08 352.37 1221.87 351.71 1221.53 350.56C1221.19 349.4 1221.85 348.19 1223 347.85C1224.15 347.5 1225.37 348.16 1225.71 349.32ZM1235.18 342.49C1235.61 343.95 1234.78 345.48 1233.32 345.91C1231.86 346.34 1230.33 345.51 1229.9 344.05C1229.47 342.59 1230.3 341.06 1231.76 340.63C1233.21 340.2 1234.75 341.04 1235.18 342.49ZM1244.56 332.97C1245.07 334.71 1244.08 336.53 1242.35 337.04C1240.61 337.55 1238.79 336.56 1238.28 334.83C1237.77 333.09 1238.76 331.27 1240.49 330.76C1242.23 330.25 1244.05 331.24 1244.56 332.97ZM1252.42 320.93C1253.02 322.97 1251.86 325.12 1249.81 325.72C1247.77 326.32 1245.62 325.16 1245.02 323.11C1244.42 321.07 1245.58 318.92 1247.63 318.32C1249.67 317.72 1251.82 318.89 1252.42 320.93ZM1258.2 306.45C1258.9 308.83 1257.54 311.33 1255.16 312.04C1252.78 312.74 1250.28 311.38 1249.57 309C1248.87 306.62 1250.23 304.12 1252.61 303.41C1255 302.7 1257.5 304.06 1258.2 306.45ZM1250.29 350.7C1250.92 351.73 1250.59 353.07 1249.57 353.7C1248.54 354.33 1247.2 354.01 1246.57 352.98C1245.94 351.95 1246.27 350.61 1247.29 349.98C1248.32 349.35 1249.66 349.68 1250.29 350.7ZM1257.67 341.66C1258.46 342.96 1258.06 344.65 1256.76 345.45C1255.46 346.24 1253.77 345.83 1252.97 344.54C1252.18 343.24 1252.58 341.55 1253.88 340.75C1255.18 339.95 1256.88 340.36 1257.67 341.66ZM1264.27 330.04C1265.21 331.58 1264.73 333.6 1263.18 334.54C1261.64 335.48 1259.62 335 1258.68 333.45C1257.74 331.91 1258.22 329.89 1259.77 328.95C1261.31 328.01 1263.33 328.49 1264.27 330.04ZM1268.74 316.37C1269.85 318.19 1269.28 320.56 1267.46 321.67C1265.64 322.78 1263.27 322.21 1262.16 320.39C1261.05 318.57 1261.62 316.2 1263.44 315.09C1265.26 313.98 1267.63 314.55 1268.74 316.37ZM1269.09 307.06C1266.97 308.36 1264.2 307.69 1262.91 305.57C1261.61 303.45 1262.28 300.68 1264.4 299.39C1266.52 298.09 1269.29 298.76 1270.58 300.88C1271.88 303 1271.21 305.77 1269.09 307.06ZM1274.39 345.68C1275.26 346.51 1275.3 347.89 1274.47 348.76C1273.64 349.63 1272.26 349.67 1271.39 348.84C1270.52 348.01 1270.48 346.63 1271.31 345.76C1272.14 344.88 1273.52 344.85 1274.39 345.68ZM1279.18 335.03C1280.28 336.08 1280.33 337.82 1279.28 338.92C1278.23 340.02 1276.49 340.07 1275.39 339.02C1274.29 337.97 1274.24 336.23 1275.29 335.13C1276.33 334.03 1278.08 333.99 1279.18 335.03ZM1282.55 322.1C1283.86 323.35 1283.91 325.42 1282.67 326.73C1281.42 328.04 1279.35 328.09 1278.04 326.85C1276.73 325.61 1276.68 323.53 1277.92 322.22C1279.16 320.9 1281.23 320.85 1282.55 322.1ZM1283.33 307.74C1284.87 309.21 1284.94 311.65 1283.47 313.19C1282 314.73 1279.56 314.8 1278.02 313.33C1276.48 311.86 1276.41 309.42 1277.88 307.88C1279.35 306.33 1281.79 306.27 1283.33 307.74ZM1274.9 298.82C1273.1 297.11 1273.03 294.26 1274.74 292.46C1276.45 290.66 1279.3 290.59 1281.1 292.3C1282.9 294.01 1282.97 296.86 1281.26 298.66C1279.55 300.46 1276.7 300.53 1274.9 298.82ZM1297.25 337.55C1296.67 338.61 1295.35 339 1294.29 338.42C1293.23 337.84 1292.84 336.52 1293.42 335.46C1294 334.4 1295.32 334.01 1296.38 334.59C1297.43 335.16 1297.82 336.49 1297.25 337.55ZM1299.35 326.8C1298.62 328.14 1296.95 328.63 1295.61 327.9C1294.27 327.17 1293.78 325.5 1294.51 324.16C1295.24 322.82 1296.91 322.33 1298.25 323.06C1299.58 323.79 1300.07 325.46 1299.35 326.8ZM1299.46 314.14C1298.6 315.73 1296.61 316.32 1295.02 315.45C1293.43 314.58 1292.84 312.6 1293.71 311.01C1294.57 309.42 1296.56 308.83 1298.15 309.7C1299.74 310.56 1300.32 312.55 1299.46 314.14ZM1291.5 302.4C1289.63 301.38 1288.94 299.04 1289.96 297.17C1290.98 295.3 1293.32 294.61 1295.19 295.63C1297.06 296.65 1297.75 298.99 1296.73 300.86C1295.72 302.73 1293.37 303.42 1291.5 302.4ZM1284.74 289.19C1282.56 288 1281.75 285.27 1282.94 283.09C1284.13 280.91 1286.86 280.1 1289.04 281.29C1291.22 282.48 1292.03 285.21 1290.84 287.39C1289.65 289.57 1286.92 290.38 1284.74 289.19ZM1316.34 320.82C1316.06 321.99 1314.88 322.71 1313.71 322.43C1312.54 322.15 1311.82 320.97 1312.1 319.8C1312.38 318.63 1313.56 317.91 1314.73 318.19C1315.9 318.47 1316.63 319.64 1316.34 320.82ZM1312.27 311.93C1310.79 311.57 1309.88 310.09 1310.24 308.61C1310.6 307.13 1312.08 306.22 1313.56 306.58C1315.04 306.94 1315.95 308.42 1315.59 309.9C1315.23 311.37 1313.75 312.28 1312.27 311.93ZM1308.47 300.05C1306.71 299.63 1305.63 297.86 1306.05 296.1C1306.47 294.34 1308.24 293.26 1310 293.68C1311.76 294.1 1312.84 295.87 1312.42 297.63C1312 299.4 1310.23 300.48 1308.47 300.05ZM1306.35 285.51C1305.85 287.58 1303.77 288.85 1301.7 288.36C1299.63 287.86 1298.36 285.78 1298.85 283.71C1299.35 281.64 1301.43 280.37 1303.5 280.86C1305.58 281.36 1306.85 283.44 1306.35 285.51ZM1293.85 268.6C1296.26 269.18 1297.75 271.61 1297.17 274.03C1296.59 276.44 1294.16 277.93 1291.74 277.35C1289.33 276.77 1287.84 274.34 1288.42 271.92C1289.01 269.51 1291.44 268.02 1293.85 268.6ZM1330.46 299.71C1330.49 300.91 1329.54 301.91 1328.33 301.95C1327.12 301.99 1326.13 301.03 1326.09 299.82C1326.06 298.62 1327.01 297.62 1328.21 297.58C1329.43 297.56 1330.43 298.51 1330.46 299.71ZM1324.22 292.18C1322.7 292.22 1321.44 291.02 1321.4 289.5C1321.36 287.98 1322.56 286.72 1324.08 286.68C1325.6 286.64 1326.86 287.84 1326.9 289.36C1326.94 290.88 1325.74 292.14 1324.22 292.18ZM1320.67 278.34C1320.72 280.15 1319.29 281.65 1317.48 281.7C1315.67 281.75 1314.17 280.32 1314.12 278.51C1314.07 276.7 1315.5 275.2 1317.31 275.15C1319.12 275.1 1320.63 276.53 1320.67 278.34ZM1311.67 268.2C1311.72 270.33 1310.04 272.1 1307.91 272.15C1305.78 272.2 1304.01 270.52 1303.96 268.39C1303.91 266.26 1305.59 264.49 1307.72 264.44C1309.85 264.38 1311.62 266.07 1311.67 268.2ZM1295.45 264.09C1292.97 264.15 1290.9 262.19 1290.84 259.71C1290.78 257.23 1292.74 255.16 1295.22 255.1C1297.7 255.04 1299.77 257 1299.83 259.48C1299.9 261.97 1297.93 264.03 1295.45 264.09ZM1338.63 275.68C1338.97 276.84 1338.31 278.05 1337.16 278.39C1336 278.73 1334.79 278.07 1334.45 276.92C1334.11 275.76 1334.77 274.55 1335.92 274.21C1337.08 273.86 1338.29 274.52 1338.63 275.68ZM1332.52 266.59C1332.95 268.05 1332.12 269.58 1330.66 270.01C1329.2 270.44 1327.67 269.61 1327.24 268.15C1326.81 266.69 1327.64 265.16 1329.1 264.73C1330.56 264.3 1332.09 265.13 1332.52 266.59ZM1321.43 261.63C1319.69 262.14 1317.87 261.15 1317.36 259.42C1316.85 257.68 1317.84 255.86 1319.57 255.35C1321.31 254.84 1323.13 255.83 1323.64 257.56C1324.16 259.3 1323.17 261.12 1321.43 261.63ZM1309.72 254.89C1307.68 255.49 1305.53 254.33 1304.93 252.28C1304.33 250.24 1305.49 248.09 1307.54 247.49C1309.58 246.89 1311.73 248.05 1312.33 250.1C1312.93 252.14 1311.76 254.28 1309.72 254.89ZM1290.01 247.29C1289.31 244.91 1290.67 242.41 1293.05 241.7C1295.43 241 1297.93 242.36 1298.64 244.74C1299.34 247.12 1297.98 249.62 1295.6 250.33C1293.22 251.03 1290.71 249.67 1290.01 247.29ZM1340.31 250.34C1340.94 251.37 1340.61 252.71 1339.59 253.34C1338.56 253.97 1337.22 253.65 1336.59 252.62C1335.96 251.59 1336.28 250.25 1337.31 249.62C1338.34 248.99 1339.68 249.31 1340.31 250.34ZM1327.35 246.02C1326.56 244.72 1326.96 243.03 1328.26 242.23C1329.56 241.44 1331.25 241.85 1332.05 243.14C1332.84 244.44 1332.44 246.13 1331.14 246.93C1329.84 247.73 1328.15 247.32 1327.35 246.02ZM1315.55 240.14C1314.61 238.6 1315.09 236.58 1316.64 235.64C1318.18 234.7 1320.2 235.18 1321.14 236.73C1322.08 238.27 1321.6 240.29 1320.05 241.23C1318.51 242.17 1316.5 241.69 1315.55 240.14ZM1302.98 231.16C1304.8 230.05 1307.17 230.62 1308.28 232.44C1309.39 234.26 1308.82 236.63 1307 237.74C1305.18 238.85 1302.81 238.28 1301.7 236.46C1300.59 234.65 1301.16 232.27 1302.98 231.16ZM1287.48 229.33C1289.6 228.03 1292.37 228.7 1293.66 230.82C1294.96 232.94 1294.29 235.71 1292.17 237C1290.05 238.3 1287.28 237.63 1285.99 235.51C1284.7 233.39 1285.37 230.62 1287.48 229.33ZM1335.45 228.52C1334.62 229.39 1333.24 229.43 1332.37 228.6C1331.5 227.77 1331.46 226.39 1332.29 225.52C1333.12 224.65 1334.5 224.61 1335.37 225.44C1336.24 226.27 1336.28 227.65 1335.45 228.52ZM1321.74 224.62C1320.64 223.57 1320.59 221.83 1321.64 220.73C1322.69 219.63 1324.43 219.58 1325.53 220.63C1326.63 221.68 1326.68 223.42 1325.63 224.52C1324.58 225.63 1322.84 225.67 1321.74 224.62ZM1313.45 221.88C1312.2 223.19 1310.13 223.24 1308.82 222C1307.51 220.75 1307.46 218.68 1308.7 217.37C1309.95 216.06 1312.02 216.01 1313.33 217.25C1314.64 218.49 1314.7 220.56 1313.45 221.88ZM1299.93 221.89C1298.46 223.43 1296.02 223.5 1294.48 222.03C1292.94 220.56 1292.87 218.12 1294.34 216.58C1295.81 215.04 1298.25 214.97 1299.79 216.44C1301.34 217.9 1301.4 220.35 1299.93 221.89ZM1278.91 218.81C1280.62 217.01 1283.47 216.94 1285.27 218.65C1287.07 220.36 1287.14 223.21 1285.43 225.01C1283.72 226.81 1280.87 226.88 1279.07 225.17C1277.27 223.46 1277.19 220.61 1278.91 218.81ZM1321.19 203.54C1321.77 202.48 1323.09 202.09 1324.15 202.67C1325.21 203.25 1325.6 204.57 1325.02 205.63C1324.44 206.69 1323.12 207.08 1322.06 206.5C1321.01 205.92 1320.62 204.59 1321.19 203.54ZM1309.67 201.66C1310.4 200.32 1312.07 199.83 1313.41 200.56C1314.75 201.29 1315.24 202.96 1314.51 204.3C1313.78 205.64 1312.11 206.13 1310.77 205.4C1309.44 204.67 1308.94 203 1309.67 201.66ZM1300.75 200.45C1302.34 201.31 1302.93 203.3 1302.06 204.89C1301.2 206.48 1299.21 207.07 1297.62 206.2C1296.03 205.34 1295.44 203.35 1296.31 201.76C1297.17 200.17 1299.16 199.59 1300.75 200.45ZM1289.01 208.4C1287.99 210.27 1285.65 210.96 1283.78 209.94C1281.91 208.92 1281.22 206.58 1282.24 204.71C1283.26 202.84 1285.6 202.15 1287.47 203.17C1289.33 204.19 1290.02 206.53 1289.01 208.4ZM1269.7 216.97C1267.52 215.78 1266.71 213.05 1267.9 210.87C1269.09 208.69 1271.82 207.88 1274 209.07C1276.18 210.26 1276.99 212.99 1275.8 215.17C1274.61 217.35 1271.88 218.16 1269.7 216.97ZM1304.79 185.17C1305.07 184 1306.25 183.28 1307.42 183.56C1308.59 183.84 1309.31 185.02 1309.03 186.19C1308.75 187.36 1307.57 188.08 1306.4 187.8C1305.23 187.52 1304.51 186.35 1304.79 185.17ZM1293.17 186.35C1293.53 184.87 1295.01 183.96 1296.49 184.32C1297.97 184.68 1298.88 186.16 1298.52 187.64C1298.16 189.12 1296.68 190.03 1295.2 189.67C1293.73 189.32 1292.82 187.83 1293.17 186.35ZM1280.29 189.9C1280.71 188.14 1282.48 187.06 1284.24 187.48C1286 187.9 1287.08 189.67 1286.66 191.43C1286.24 193.19 1284.47 194.27 1282.71 193.85C1280.95 193.43 1279.86 191.66 1280.29 189.9ZM1267.46 196.4C1267.96 194.33 1270.04 193.06 1272.11 193.55C1274.18 194.05 1275.45 196.13 1274.96 198.2C1274.46 200.27 1272.38 201.54 1270.31 201.05C1268.24 200.55 1266.96 198.47 1267.46 196.4ZM1260.63 202.74C1263.04 203.32 1264.53 205.75 1263.95 208.17C1263.37 210.58 1260.94 212.07 1258.52 211.49C1256.11 210.91 1254.62 208.48 1255.2 206.06C1255.79 203.64 1258.22 202.15 1260.63 202.74Z" fill="url(#paint1_radial_54_79)"/>
</g>
<defs>
<linearGradient id="paint0_linear_54_79" x1="19.4497" y1="226.57" x2="1274.45" y2="226.57" gradientUnits="userSpaceOnUse">
<stop offset="0.2809" stop-color="#CFC093"/>
<stop offset="0.6685" stop-color="#F3903F"/>
<stop offset="0.8876" stop-color="#ED683C"/>
<stop offset="1" stop-color="#F3703B"/>
</linearGradient>
<radialGradient id="paint1_radial_54_79" cx="0" cy="0" r="1" gradientUnits="userSpaceOnUse" gradientTransform="translate(1244.21 256.652) scale(96.8968 96.8968)">
<stop offset="0.1866" stop-color="#ED683C"/>
<stop offset="0.7861" stop-color="#F3903F"/>
<stop offset="0.8267" stop-color="#EF964A"/>
<stop offset="0.8996" stop-color="#E4A666"/>
<stop offset="0.9958" stop-color="#D0BF91"/>
<stop offset="1" stop-color="#CFC093"/>
</radialGradient>
<clipPath id="clip0_54_79">
<rect width="1365.73" height="458.77" fill="white"/>
</clipPath>
</defs>
</svg>
